<?xml version="1.0" encoding="UTF-8"?>
<svg version="1.1" xmlns="http://www.w3.org/2000/svg" width="315" height="132">
<path d="M0 0 C103.95 0 207.9 0 315 0 C315 43.56 315 87.12 315 132 C211.05 132 107.1 132 0 132 C0 88.44 0 44.88 0 0 Z " fill="#010101" transform="translate(0,0)"/>
<path d="M0 0 C1.06549072 -0.02594238 2.13098145 -0.05188477 3.22875977 -0.07861328 C10.97195813 -0.09672885 17.44835258 0.97942173 23.37109375 6.26953125 C24.02271484 7.21892578 24.02271484 7.21892578 24.6875 8.1875 C25.13996094 8.81269531 25.59242187 9.43789063 26.05859375 10.08203125 C30.52256798 18.67335215 30.87985772 30.10806428 28.0625 39.3125 C25.68550223 45.22167203 22.59508239 50.26952483 17.875 54.5625 C17.00875 55.490625 16.1425 56.41875 15.25 57.375 C15.5226902 61.29807587 17.06024858 64.17222969 19.0078125 67.53515625 C19.55050781 68.49357422 20.09320313 69.45199219 20.65234375 70.43945312 C21.80441029 72.44446689 22.96069157 74.44706456 24.12109375 76.44726562 C24.66121094 77.40439453 25.20132813 78.36152344 25.7578125 79.34765625 C26.25941895 80.21656494 26.76102539 81.08547363 27.27783203 81.98071289 C28.25 84.375 28.25 84.375 28.12182617 86.5144043 C27.0336781 88.83666038 25.9006144 89.72235425 23.79296875 91.171875 C23.09236328 91.65527344 22.39175781 92.13867188 21.66992188 92.63671875 C20.56487305 93.37341797 20.56487305 93.37341797 19.4375 94.125 C18.71240234 94.63160156 17.98730469 95.13820313 17.24023438 95.66015625 C11.76809931 99.375 11.76809931 99.375 7.25 99.375 C6.97849121 98.82150879 6.70698242 98.26801758 6.42724609 97.69775391 C-0.17177431 84.09611559 -0.17177431 84.09611559 -7.7890625 71.0546875 C-8.75 69.375 -8.75 69.375 -8.75 67.375 C-13.205 68.365 -13.205 68.365 -17.75 69.375 C-17.74214478 70.63944946 -17.74214478 70.63944946 -17.73413086 71.92944336 C-17.71712174 75.04727936 -17.70456594 78.16509177 -17.69506836 81.28295898 C-17.69002943 82.63420386 -17.68319823 83.98544326 -17.67456055 85.33666992 C-17.66247581 87.27520434 -17.65730172 89.213778 -17.65234375 91.15234375 C-17.64448853 92.90405884 -17.64448853 92.90405884 -17.63647461 94.69116211 C-17.75 97.375 -17.75 97.375 -18.75 98.375 C-20.38472882 98.46200342 -22.02314055 98.48201063 -23.66015625 98.47265625 C-24.64951172 98.46943359 -25.63886719 98.46621094 -26.65820312 98.46289062 C-27.69912109 98.45451172 -28.74003906 98.44613281 -29.8125 98.4375 C-30.85728516 98.43298828 -31.90207031 98.42847656 -32.97851562 98.42382812 C-35.5690666 98.41199913 -38.15950559 98.39551689 -40.75 98.375 C-40.96038496 85.0729328 -40.39927854 71.87647461 -39.578125 58.60083008 C-39.3768 55.34163959 -39.18380885 52.08203954 -38.9921875 48.82226562 C-38.10618752 33.98992314 -36.9906787 19.18168815 -35.75 4.375 C-34.71837486 4.16944992 -34.71837486 4.16944992 -33.66590881 3.95974731 C-32.76432541 3.77983246 -31.862742 3.5999176 -30.93383789 3.41455078 C-30.0398378 3.2362674 -29.14583771 3.05798401 -28.2247467 2.8742981 C-26.41677475 2.50952664 -24.61173904 2.13011517 -22.80859375 1.7421875 C-15.23028483 0.31913694 -7.69601216 0.09966462 0 0 Z " fill="#F9F9F9" transform="translate(51.75,16.625)"/>
<path d="M0 0 C3.68995222 1.61957179 6.10565615 4.03226239 8.90234375 6.88671875 C9.45212891 7.41265625 10.00191406 7.93859375 10.56835938 8.48046875 C12.82664877 10.74717413 14.43560967 12.54700021 15.25390625 15.67578125 C14.30571931 19.18965048 12.1620475 21.26192988 9.65234375 23.76171875 C8.63686489 24.81795481 7.62388566 25.87659912 6.61328125 26.9375 C6.1037793 27.46939941 5.59427734 28.00129883 5.06933594 28.54931641 C2.07117744 31.76615247 -0.63708314 35.22251831 -3.39453125 38.64453125 C-6.00115528 41.86745011 -8.69559052 45.00452752 -11.41015625 48.13671875 C-8.34458294 54.26786537 -4.66572001 59.63132388 -0.53515625 65.07421875 C-0.01058838 65.76676758 0.51397949 66.45931641 1.05444336 67.17285156 C2.56434052 69.16226371 4.07644766 71.14996742 5.58984375 73.13671875 C7.041462 75.04271503 8.48182029 76.95743638 9.90234375 78.88671875 C10.45535156 79.6240625 11.00835937 80.36140625 11.578125 81.12109375 C12.58984375 83.13671875 12.58984375 83.13671875 12.62109375 85.0546875 C11.02870393 88.26962605 8.43530176 90.37389775 5.77734375 92.69921875 C5.24302734 93.18068359 4.70871094 93.66214844 4.15820312 94.15820312 C1.39860027 96.62589227 -1.40430436 98.9751255 -4.41015625 101.13671875 C-8.85471992 99.63490271 -10.6628472 96.16407015 -13.03515625 92.38671875 C-13.91336235 91.02865106 -14.79362649 89.67191235 -15.67578125 88.31640625 C-16.12501953 87.62385742 -16.57425781 86.93130859 -17.03710938 86.21777344 C-19.20862257 82.92652548 -21.48724405 79.71549712 -23.78515625 76.51171875 C-24.18943848 75.94485352 -24.5937207 75.37798828 -25.01025391 74.79394531 C-27.38150841 71.49214856 -29.86124471 68.30229166 -32.41015625 65.13671875 C-32.4352124 66.19173584 -32.46026855 67.24675293 -32.48608398 68.33374023 C-32.57999734 72.23442503 -32.68025659 76.134925 -32.7824707 80.03540039 C-32.82588064 81.72611174 -32.86755114 83.41686866 -32.9074707 85.10766602 C-32.96502719 87.53285481 -33.02876274 89.9578129 -33.09375 92.3828125 C-33.11881874 93.52344398 -33.11881874 93.52344398 -33.14439392 94.68711853 C-33.29628454 100.02284704 -33.29628454 100.02284704 -34.41015625 101.13671875 C-36.03273169 101.23588445 -37.65955456 101.26751652 -39.28515625 101.26953125 C-40.27 101.27082031 -41.25484375 101.27210937 -42.26953125 101.2734375 C-43.3059375 101.26957031 -44.34234375 101.26570313 -45.41015625 101.26171875 C-46.96476563 101.26751953 -46.96476563 101.26751953 -48.55078125 101.2734375 C-49.535625 101.27214844 -50.52046875 101.27085938 -51.53515625 101.26953125 C-52.44523438 101.26840332 -53.3553125 101.26727539 -54.29296875 101.26611328 C-56.41015625 101.13671875 -56.41015625 101.13671875 -57.41015625 100.13671875 C-57.52485853 97.39388855 -57.57408814 94.6773932 -57.578125 91.93359375 C-57.58226913 91.08061203 -57.58641327 90.22763031 -57.59068298 89.34880066 C-57.60047396 86.52806438 -57.6003187 83.70746963 -57.59765625 80.88671875 C-57.59771667 79.92476593 -57.5977771 78.96281311 -57.59783936 77.97171021 C-57.58566056 64.31885023 -57.28688751 50.70662104 -56.53515625 37.07421875 C-56.49595062 36.34223267 -56.456745 35.61024658 -56.41635132 34.8560791 C-55.96210223 26.59390577 -55.28570692 18.36825224 -54.40234375 10.140625 C-54.31977325 9.3558226 -54.23720276 8.5710202 -54.15213013 7.76243591 C-53.53181247 2.25837497 -53.53181247 2.25837497 -52.41015625 1.13671875 C-48.93806818 0.88572951 -45.45275005 0.95149779 -41.97265625 0.94921875 C-40.99232422 0.93697266 -40.01199219 0.92472656 -39.00195312 0.91210938 C-38.06544922 0.91017578 -37.12894531 0.90824219 -36.1640625 0.90625 C-35.30111572 0.90214111 -34.43816895 0.89803223 -33.54907227 0.89379883 C-31.41015625 1.13671875 -31.41015625 1.13671875 -29.41015625 3.13671875 C-29.22261253 6.88759325 -29.23955506 10.19841222 -29.91015625 13.88671875 C-30.68943153 18.95200809 -30.4846451 24.02181785 -30.41015625 29.13671875 C-22.90910216 21.81391123 -22.90910216 21.81391123 -15.84765625 14.07421875 C-13.05666955 10.84608955 -10.21323787 7.67910648 -7.28515625 4.57421875 C-6.47820312 3.70667969 -5.67125 2.83914062 -4.83984375 1.9453125 C-2.41015625 0.13671875 -2.41015625 0.13671875 0 0 Z " fill="#FAFAFA" transform="translate(285.41015625,14.86328125)"/>
<path d="M0 0 C1.91570801 -0.00700928 1.91570801 -0.00700928 3.87011719 -0.01416016 C5.03188477 -0.01206543 6.19365234 -0.0099707 7.390625 -0.0078125 C8.40672852 -0.00668457 9.42283203 -0.00555664 10.46972656 -0.00439453 C12.75 0.125 12.75 0.125 13.75 1.125 C14.00035974 4.43016934 13.93521952 7.74896041 13.9375 11.0625 C13.94974609 11.99513672 13.96199219 12.92777344 13.97460938 13.88867188 C13.97654297 14.78005859 13.97847656 15.67144531 13.98046875 16.58984375 C13.98457764 17.410896 13.98868652 18.23194824 13.99291992 19.07788086 C13.75 21.125 13.75 21.125 11.75 23.125 C4.82 23.125 -2.11 23.125 -9.25 23.125 C-9.25 38.635 -9.25 54.145 -9.25 70.125 C-9.91 70.125 -10.57 70.125 -11.25 70.125 C-11.16621094 70.75664063 -11.08242187 71.38828125 -10.99609375 72.0390625 C-10.2229445 78.8310319 -10.39543175 85.2536255 -10.99609375 92.05859375 C-11.30501343 95.27657621 -11.30501343 95.27657621 -11.25 99.125 C-12.93516954 100.81016954 -15.03767788 100.25508019 -17.34375 100.2578125 C-18.37371094 100.25910156 -19.40367187 100.26039062 -20.46484375 100.26171875 C-22.09099609 100.25591797 -22.09099609 100.25591797 -23.75 100.25 C-24.83410156 100.25386719 -25.91820312 100.25773437 -27.03515625 100.26171875 C-28.06511719 100.26042969 -29.09507812 100.25914063 -30.15625 100.2578125 C-31.10822266 100.25668457 -32.06019531 100.25555664 -33.04101562 100.25439453 C-35.25 100.125 -35.25 100.125 -36.25 99.125 C-36.35627841 96.51395035 -36.39019302 93.93576835 -36.375 91.32421875 C-36.37234131 90.4902507 -36.36968262 89.65628265 -36.36694336 88.79704285 C-36.27931288 76.50361036 -35.73528167 64.22017461 -35.25 51.9375 C-35.1533144 49.42253876 -35.05695803 46.90756484 -34.9609375 44.39257812 C-34.7277457 38.30323433 -34.49052102 32.21405848 -34.25 26.125 C-35.41917969 26.3415625 -36.58835938 26.558125 -37.79296875 26.78125 C-39.34110418 27.06272917 -40.88928361 27.34396644 -42.4375 27.625 C-43.20642578 27.76808594 -43.97535156 27.91117188 -44.76757812 28.05859375 C-52.35981043 29.42715065 -52.35981043 29.42715065 -56.25 29.125 C-57.9943637 27.3806363 -57.38193575 25.12559283 -57.38916016 22.80322266 C-57.3844873 22.08440918 -57.37981445 21.3655957 -57.375 20.625 C-57.37161621 19.89974121 -57.36823242 19.17448242 -57.36474609 18.42724609 C-57.22709661 4.10209661 -57.22709661 4.10209661 -54.25 1.125 C-51.80497677 0.87731149 -49.46605208 0.7511866 -47.015625 0.7109375 C-45.90858215 0.68175232 -45.90858215 0.68175232 -44.7791748 0.65197754 C-42.3529018 0.59116584 -39.92661298 0.545056 -37.5 0.5 C-35.83104597 0.46279142 -34.16210063 0.42519084 -32.49316406 0.38720703 C-21.66318971 0.15371138 -10.83238837 0.02796658 0 0 Z " fill="#F9F9F9" transform="translate(177.25,15.875)"/>
<path d="M0 0 C0.97839844 0.00193359 1.95679688 0.00386719 2.96484375 0.00585938 C4.49431641 0.02422852 4.49431641 0.02422852 6.0546875 0.04296875 C7.08207031 0.04361328 8.10945313 0.04425781 9.16796875 0.04492188 C16.78944664 0.09022789 16.78944664 0.09022789 17.9296875 1.23046875 C18.3788369 9.81132109 17.71828819 18.3723714 16.9921875 26.91796875 C16.12387832 37.69776517 15.57410022 48.45794213 15.27172852 59.26831055 C15.22423462 60.81578979 15.22423462 60.81578979 15.17578125 62.39453125 C15.15185303 63.3067041 15.1279248 64.21887695 15.10327148 65.15869141 C14.9296875 67.23046875 14.9296875 67.23046875 13.9296875 68.23046875 C14.2596875 68.23046875 14.5896875 68.23046875 14.9296875 68.23046875 C14.9296875 70.21046875 14.9296875 72.19046875 14.9296875 74.23046875 C14.2696875 74.23046875 13.6096875 74.23046875 12.9296875 74.23046875 C12.9296875 74.89046875 12.9296875 75.55046875 12.9296875 76.23046875 C13.5896875 76.23046875 14.2496875 76.23046875 14.9296875 76.23046875 C14.98755418 80.02207172 15.02323804 83.81356186 15.0546875 87.60546875 C15.07144531 88.68570313 15.08820313 89.7659375 15.10546875 90.87890625 C15.11191406 91.91015625 15.11835938 92.94140625 15.125 94.00390625 C15.13547363 94.95700684 15.14594727 95.91010742 15.15673828 96.89208984 C14.9296875 99.23046875 14.9296875 99.23046875 12.9296875 101.23046875 C10.51538086 101.47338867 10.51538086 101.47338867 7.51953125 101.4609375 C6.44767578 101.45900391 5.37582031 101.45707031 4.27148438 101.45507812 C3.14806641 101.44283203 2.02464844 101.43058594 0.8671875 101.41796875 C-0.82374023 101.41700195 -0.82374023 101.41700195 -2.54882812 101.41601562 C-10.93017933 101.37060192 -10.93017933 101.37060192 -12.0703125 100.23046875 C-12.18498127 97.77829162 -12.23423932 95.355593 -12.23828125 92.90234375 C-12.24449745 91.75659126 -12.24449745 91.75659126 -12.25083923 90.58769226 C-12.26064907 88.05190408 -12.26046974 85.5162733 -12.2578125 82.98046875 C-12.25787292 82.1118924 -12.25793335 81.24331604 -12.25799561 80.34841919 C-12.24017978 62.26058963 -11.451721 44.25444592 -10.20635986 26.21252441 C-10.07619034 24.31610215 -9.95177719 22.41928741 -9.82763672 20.52246094 C-9.61532571 17.3607849 -9.38115266 14.20199386 -9.1328125 11.04296875 C-9.0704541 10.152146 -9.0080957 9.26132324 -8.94384766 8.34350586 C-8.73046875 5.9375 -8.73046875 5.9375 -8.0703125 2.23046875 C-4.78564849 0.04069274 -3.80848155 -0.017395 0 0 Z " fill="#F0F0F0" transform="translate(208.0703125,14.76953125)"/>
<path d="M0 0 C0.97839844 0.00193359 1.95679687 0.00386719 2.96484375 0.00585938 C4.49431641 0.02422852 4.49431641 0.02422852 6.0546875 0.04296875 C7.08207031 0.04361328 8.10945313 0.04425781 9.16796875 0.04492188 C16.78944664 0.09022789 16.78944664 0.09022789 17.9296875 1.23046875 C18.3788369 9.81132109 17.71828819 18.3723714 16.9921875 26.91796875 C16.12387832 37.69776517 15.57410022 48.45794213 15.27172852 59.26831055 C15.22423462 60.81578979 15.22423462 60.81578979 15.17578125 62.39453125 C15.15185303 63.3067041 15.1279248 64.21887695 15.10327148 65.15869141 C14.9296875 67.23046875 14.9296875 67.23046875 13.9296875 68.23046875 C14.2596875 68.23046875 14.5896875 68.23046875 14.9296875 68.23046875 C14.9296875 70.21046875 14.9296875 72.19046875 14.9296875 74.23046875 C14.2696875 74.23046875 13.6096875 74.23046875 12.9296875 74.23046875 C12.9296875 74.89046875 12.9296875 75.55046875 12.9296875 76.23046875 C13.5896875 76.23046875 14.2496875 76.23046875 14.9296875 76.23046875 C14.98755418 80.02207172 15.02323804 83.81356186 15.0546875 87.60546875 C15.07144531 88.68570313 15.08820313 89.7659375 15.10546875 90.87890625 C15.11191406 91.91015625 15.11835937 92.94140625 15.125 94.00390625 C15.13547363 94.95700684 15.14594727 95.91010742 15.15673828 96.89208984 C14.9296875 99.23046875 14.9296875 99.23046875 12.9296875 101.23046875 C10.51538086 101.47338867 10.51538086 101.47338867 7.51953125 101.4609375 C6.44767578 101.45900391 5.37582031 101.45707031 4.27148438 101.45507812 C3.14806641 101.44283203 2.02464844 101.43058594 0.8671875 101.41796875 C-0.82374023 101.41700195 -0.82374023 101.41700195 -2.54882812 101.41601562 C-10.93017933 101.37060192 -10.93017933 101.37060192 -12.0703125 100.23046875 C-12.18498127 97.77829162 -12.23423932 95.355593 -12.23828125 92.90234375 C-12.24449745 91.75659126 -12.24449745 91.75659126 -12.25083923 90.58769226 C-12.26064907 88.05190408 -12.26046974 85.5162733 -12.2578125 82.98046875 C-12.25787292 82.1118924 -12.25793335 81.24331604 -12.25799561 80.34841919 C-12.24017978 62.26058963 -11.451721 44.25444592 -10.20635986 26.21252441 C-10.07619034 24.31610215 -9.95177719 22.41928741 -9.82763672 20.52246094 C-9.61532571 17.3607849 -9.38115266 14.20199386 -9.1328125 11.04296875 C-9.0704541 10.152146 -9.0080957 9.26132324 -8.94384766 8.34350586 C-8.73046875 5.9375 -8.73046875 5.9375 -8.0703125 2.23046875 C-4.78564849 0.04069274 -3.80848155 -0.017395 0 0 Z " fill="#F0F0F0" transform="translate(101.0703125,14.76953125)"/>
<path d="M0 0 C2 2 2 2 2.375 5.125 C1.9205288 9.82120235 0.72382004 13.153128 -2 17 C-7.65535945 21.57241828 -11.73730335 23 -19 23 C-18.67 16.4 -18.34 9.8 -18 3 C-5.18887665 -0.41629956 -5.18887665 -0.41629956 0 0 Z " fill="#060606" transform="translate(55,38)"/>
<path d="M0 0 C0.33 0 0.66 0 1 0 C1 3.96 1 7.92 1 12 C1.66 12 2.32 12 3 12 C3 11.34 3 10.68 3 10 C3.66 10 4.32 10 5 10 C5.18451025 26.8929385 5.18451025 26.8929385 4 34 C3.34 34 2.68 34 2 34 C1.67 32.02 1.34 30.04 1 28 C0.67 32.62 0.34 37.24 0 42 C-0.33 42 -0.66 42 -1 42 C-1.14733758 27.97018844 -0.71069074 14.01157028 0 0 Z " fill="#909090" transform="translate(142,73)"/>
<path d="M0 0 C1.65 0.33 3.3 0.66 5 1 C5 1.66 5 2.32 5 3 C5.66 3 6.32 3 7 3 C7 10.59 7 18.18 7 26 C6.67 26 6.34 26 6 26 C6 22.37 6 18.74 6 15 C5.34 15 4.68 15 4 15 C4 14.34 4 13.68 4 13 C3.34 13 2.68 13 2 13 C2.33 12.01 2.66 11.02 3 10 C3.66 10 4.32 10 5 10 C5.33 9.01 5.66 8.02 6 7 C4.68 7.33 3.36 7.66 2 8 C2 8.66 2 9.32 2 10 C0.68 9.34 -0.64 8.68 -2 8 C-1.47731534 5.23723823 -0.89130413 2.6739124 0 0 Z " fill="#D6D6D6" transform="translate(216,88)"/>
<path d="M0 0 C1.65 0.33 3.3 0.66 5 1 C5 1.66 5 2.32 5 3 C5.66 3 6.32 3 7 3 C7 10.59 7 18.18 7 26 C6.67 26 6.34 26 6 26 C6 22.37 6 18.74 6 15 C5.34 15 4.68 15 4 15 C4 14.34 4 13.68 4 13 C3.34 13 2.68 13 2 13 C2.33 12.01 2.66 11.02 3 10 C3.66 10 4.32 10 5 10 C5.33 9.01 5.66 8.02 6 7 C4.68 7.33 3.36 7.66 2 8 C2 8.66 2 9.32 2 10 C0.68 9.34 -0.64 8.68 -2 8 C-1.47731534 5.23723823 -0.89130413 2.6739124 0 0 Z " fill="#D6D6D6" transform="translate(109,88)"/>
<path d="M0 0 C0.33 0 0.66 0 1 0 C1.33 3.3 1.66 6.6 2 10 C2.33 10 2.66 10 3 10 C3.10152799 16.7685324 3.03026944 23.30324864 2 30 C0.515625 28.86328125 0.515625 28.86328125 -1 27 C-1.328125 24.35546875 -1.328125 24.35546875 -1.25 21.1875 C-1.22421875 20.0428125 -1.1984375 18.898125 -1.171875 17.71875 C-0.89843645 11.80253403 -0.49548463 5.90157587 0 0 Z " fill="#CBCBCB" transform="translate(199,25)"/>
<path d="M0 0 C0.33 0 0.66 0 1 0 C1.33 3.3 1.66 6.6 2 10 C2.33 10 2.66 10 3 10 C3.10152799 16.7685324 3.03026944 23.30324864 2 30 C0.515625 28.86328125 0.515625 28.86328125 -1 27 C-1.328125 24.35546875 -1.328125 24.35546875 -1.25 21.1875 C-1.22421875 20.0428125 -1.1984375 18.898125 -1.171875 17.71875 C-0.89843645 11.80253403 -0.49548463 5.90157587 0 0 Z " fill="#CBCBCB" transform="translate(92,25)"/>
<path d="M0 0 C3.52509388 6.17239759 2.14912789 13.24887363 1 20 C0.01 19.67 -0.98 19.34 -2 19 C-2.05394705 16.39555652 -2.09364469 13.79223002 -2.125 11.1875 C-2.14175781 10.44951172 -2.15851563 9.71152344 -2.17578125 8.95117188 C-2.21074628 5.08753574 -2.19397555 3.29096332 0 0 Z " fill="#DFDFDF" transform="translate(199,51)"/>
<path d="M0 0 C3.52509388 6.17239759 2.14912789 13.24887363 1 20 C0.01 19.67 -0.98 19.34 -2 19 C-2.05394705 16.39555652 -2.09364469 13.79223002 -2.125 11.1875 C-2.14175781 10.44951172 -2.15851563 9.71152344 -2.17578125 8.95117188 C-2.21074628 5.08753574 -2.19397555 3.29096332 0 0 Z " fill="#DFDFDF" transform="translate(92,51)"/>
<path d="M0 0 C1.98 0 3.96 0 6 0 C5.46515599 5.34844008 3.53309233 9.35796103 1 14 C0.34 13.67 -0.32 13.34 -1 13 C-0.67 8.71 -0.34 4.42 0 0 Z " fill="#212121" transform="translate(202,19)"/>
<path d="M0 0 C1.98 0 3.96 0 6 0 C5.46515599 5.34844008 3.53309233 9.35796103 1 14 C0.34 13.67 -0.32 13.34 -1 13 C-0.67 8.71 -0.34 4.42 0 0 Z " fill="#212121" transform="translate(95,19)"/>
<path d="M0 0 C0.66 0 1.32 0 2 0 C2 0.66 2 1.32 2 2 C2.66 2 3.32 2 4 2 C4 9.59 4 17.18 4 25 C3.67 25 3.34 25 3 25 C3 21.37 3 17.74 3 14 C2.34 14 1.68 14 1 14 C1 13.34 1 12.68 1 12 C0.34 12 -0.32 12 -1 12 C-0.67 11.01 -0.34 10.02 0 9 C0.66 9 1.32 9 2 9 C2.33 7.02 2.66 5.04 3 3 C2.34 3 1.68 3 1 3 C0.67 2.01 0.34 1.02 0 0 Z " fill="#7D7D7D" transform="translate(219,89)"/>
<path d="M0 0 C0.66 0 1.32 0 2 0 C2 0.66 2 1.32 2 2 C2.66 2 3.32 2 4 2 C4 9.59 4 17.18 4 25 C3.67 25 3.34 25 3 25 C3 21.37 3 17.74 3 14 C2.34 14 1.68 14 1 14 C1 13.34 1 12.68 1 12 C0.34 12 -0.32 12 -1 12 C-0.67 11.01 -0.34 10.02 0 9 C0.66 9 1.32 9 2 9 C2.33 7.02 2.66 5.04 3 3 C2.34 3 1.68 3 1 3 C0.67 2.01 0.34 1.02 0 0 Z " fill="#7D7D7D" transform="translate(112,89)"/>
<path d="M0 0 C2 1 2 1 3 3 C2.34 3 1.68 3 1 3 C1.01160156 3.556875 1.02320313 4.11375 1.03515625 4.6875 C1.09676433 9.89778343 0.74999344 14.8437951 0 20 C-0.33 20 -0.66 20 -1 20 C-1.02888514 16.85418577 -1.04675923 13.70840531 -1.0625 10.5625 C-1.07087891 9.66466797 -1.07925781 8.76683594 -1.08789062 7.84179688 C-1.09111328 6.98779297 -1.09433594 6.13378906 -1.09765625 5.25390625 C-1.10551147 4.06776733 -1.10551147 4.06776733 -1.11352539 2.85766602 C-1 1 -1 1 0 0 Z " fill="#EAEAEA" transform="translate(201,16)"/>
<path d="M0 0 C2 1 2 1 3 3 C2.34 3 1.68 3 1 3 C1.01160156 3.556875 1.02320312 4.11375 1.03515625 4.6875 C1.09676433 9.89778343 0.74999344 14.8437951 0 20 C-0.33 20 -0.66 20 -1 20 C-1.02888514 16.85418577 -1.04675923 13.70840531 -1.0625 10.5625 C-1.07087891 9.66466797 -1.07925781 8.76683594 -1.08789062 7.84179688 C-1.09111328 6.98779297 -1.09433594 6.13378906 -1.09765625 5.25390625 C-1.10551147 4.06776733 -1.10551147 4.06776733 -1.11352539 2.85766602 C-1 1 -1 1 0 0 Z " fill="#EAEAEA" transform="translate(94,16)"/>
<path d="M0 0 C0.66 0 1.32 0 2 0 C2 0.66 2 1.32 2 2 C2.99 2 3.98 2 5 2 C5.33 3.98 5.66 5.96 6 8 C4.35 8 2.7 8 1 8 C0.67 5.36 0.34 2.72 0 0 Z " fill="#989898" transform="translate(215,101)"/>
<path d="M0 0 C0.66 0 1.32 0 2 0 C2 0.66 2 1.32 2 2 C2.99 2 3.98 2 5 2 C5.33 3.98 5.66 5.96 6 8 C4.35 8 2.7 8 1 8 C0.67 5.36 0.34 2.72 0 0 Z " fill="#989898" transform="translate(108,101)"/>
<path d="M0 0 C0.66 0 1.32 0 2 0 C1.979375 0.78375 1.95875 1.5675 1.9375 2.375 C1.81315937 4.98114961 1.81315937 4.98114961 3 7 C1.68 7 0.36 7 -1 7 C-1.625 5.1875 -1.625 5.1875 -2 3 C-1.34 2.01 -0.68 1.02 0 0 Z " fill="#949494" transform="translate(216,76)"/>
<path d="M0 0 C0.66 0 1.32 0 2 0 C1.979375 0.78375 1.95875 1.5675 1.9375 2.375 C1.81315937 4.98114961 1.81315937 4.98114961 3 7 C1.68 7 0.36 7 -1 7 C-1.625 5.1875 -1.625 5.1875 -2 3 C-1.34 2.01 -0.68 1.02 0 0 Z " fill="#949494" transform="translate(109,76)"/>
</svg>
