<?xml version="1.0" encoding="UTF-8"?>
<svg version="1.1" xmlns="http://www.w3.org/2000/svg" width="266" height="329">
<path d="M0 0 C87.78 0 175.56 0 266 0 C266 108.57 266 217.14 266 329 C178.22 329 90.44 329 0 329 C0 220.43 0 111.86 0 0 Z " fill="#000000" transform="translate(0,0)"/>
<path d="M0 0 C122.25058005 0 122.25058005 0 142 16 C142.83015625 16.66902344 143.6603125 17.33804688 144.515625 18.02734375 C159.18606551 30.52357226 166.54770535 47.44975526 168.21582031 66.45947266 C169.27392619 85.68426683 164.78458763 103.62128183 152.5546875 118.79296875 C143.80383626 128.40131546 131.06491555 134.6545855 119 139 C118.34 139 117.68 139 117 139 C117.07302868 140.90614497 117.07302868 140.90614497 118 143 C120.52418036 144.77734039 120.52418036 144.77734039 123.625 146.3125 C136.35475758 153.45982252 143.00584405 164.60304271 148.38793945 177.8972168 C148.68838574 178.63413852 148.98883204 179.37106024 149.29838276 180.13031292 C152.42943638 187.91036644 155.1403928 195.81637503 157.79296875 203.76953125 C158.31097381 205.30849043 158.82948418 206.84727962 159.34846497 208.38591003 C160.69502544 212.38250214 162.03478269 216.38134042 163.37298584 220.3807373 C164.73071774 224.43429702 166.09518973 228.48558632 167.45898438 232.53710938 C172.19296913 246.60786019 172.19296913 246.60786019 174.11546612 252.37438679 C175.13490566 255.43110372 176.16730313 258.48206714 177.2237854 261.5262146 C177.59119843 262.59223907 177.95861145 263.65826355 178.3371582 264.7565918 C178.65973099 265.67860886 178.98230377 266.60062592 179.31465149 267.55058289 C180 270 180 270 180 274 C161.85 274 143.7 274 125 274 C111.89267827 235.89417806 111.89267827 235.89417806 106.9765625 220.4921875 C106.64771561 219.46600311 106.31886871 218.43981873 105.98005676 217.38253784 C104.38432539 212.40089748 102.80146943 207.41582147 101.23999023 202.42333984 C96.24468744 186.65764133 91.36360228 172.30547212 76 164 C61.44241874 157.93434114 38.82855755 160.35634882 26 160 C26 197.95 26 235.9 26 275 C17.42 275 8.84 275 0 275 C0 184.25 0 93.5 0 0 Z " fill="#AEB6B9" transform="translate(0,25)"/>
<path d="M0 0 C14.293125 -0.0928125 14.293125 -0.0928125 28.875 -0.1875 C31.8641748 -0.21481201 34.85334961 -0.24212402 37.93310547 -0.27026367 C40.32779538 -0.2790334 42.7224898 -0.28667619 45.1171875 -0.29296875 C46.33994385 -0.30831665 47.5627002 -0.32366455 48.82250977 -0.33947754 C60.78685311 -0.34310237 72.0301578 2.17689132 80.85546875 10.81640625 C87.27523104 18.66278238 88.56837511 28.01427041 88.5 37.875 C88.49427979 38.83736572 88.48855957 39.79973145 88.48266602 40.79125977 C88.24671668 50.20301655 86.19154025 57.75338676 79.875 64.9375 C72.27943956 71.73527729 62.87221707 74.13491892 52.90283203 74.11352539 C51.7056958 74.11340454 50.50855957 74.11328369 49.27514648 74.11315918 C48.03192627 74.10804321 46.78870605 74.10292725 45.5078125 74.09765625 C44.354021 74.09664917 43.20022949 74.09564209 42.01147461 74.09460449 C37.71597291 74.08938637 33.42048542 74.07542512 29.125 74.0625 C19.51375 74.041875 9.9025 74.02125 0 74 C0 49.58 0 25.16 0 0 Z " fill="#000000" transform="translate(26,68)"/>
<path d="M0 0 C87.78 0 175.56 0 266 0 C266 108.57 266 217.14 266 329 C263.03 329 260.06 329 257 329 C257 222.74 257 116.48 257 7 C172.19 7 87.38 7 0 7 C0 4.69 0 2.38 0 0 Z " fill="#F83434" transform="translate(0,0)"/>
</svg>
